<svg xmlns="http://www.w3.org/2000/svg" viewBox="0 0 901 120.49"><title>TN_logo_White</title><path d="M124.62,471.8H95v87H77.58v-87H48V455.24h76.62Z" transform="translate(-48 -439.77)" style="fill:#fff"/><path d="M160.27,483.64,157,500.06H150.8a16.78,16.78,0,0,0-8.51,2.36,15,15,0,0,0-5.84,5.62v50.74H119.29V485.26h15.24l.89,9.18q9.75-10.8,21.15-10.8Z" transform="translate(-48 -439.77)" style="fill:#fff"/><path d="M227.13,546.5l-1.63,13.76h-5q-12.42,0-17.16-9.17-8,9.17-22.48,9.17a24,24,0,0,1-8.73-1.55,19.9,19.9,0,0,1-6.88-4.44,20.56,20.56,0,0,1-4.51-7,23.75,23.75,0,0,1-1.63-8.94,18.21,18.21,0,0,1,4.37-12.5,33.05,33.05,0,0,1,10.72-8,52.24,52.24,0,0,1,13.68-4.29,93,93,0,0,1,13.39-1.4q-.15-7.55-3.4-10.58t-10.8-3q-9,0-19.82,5.91l-1.78-13.6a53.91,53.91,0,0,1,26.19-7q13.31,0,19.89,7.33t6.58,24v18.34c0,2.77.08,5,.22,6.66a10.41,10.41,0,0,0,1,3.92,3.57,3.57,0,0,0,2.14,1.85,12.79,12.79,0,0,0,3.77.44Zm-25.89-5.91v-17q-11.1.43-17.9,3.92t-6.8,10.13q0,9.61,10.35,9.61a18.7,18.7,0,0,0,7.55-1.77A20,20,0,0,0,201.24,540.59Z" transform="translate(-48 -439.77)" style="fill:#fff"/><path d="M295,485.26l-28.11,73.52H251.38l-28.1-73.52h17l18.79,53.25,18.78-53.25Z" transform="translate(-48 -439.77)" style="fill:#fff"/><path d="M361.73,524.76H312.47q1.48,11,8.07,16.16a24.56,24.56,0,0,0,15.6,5.14,49.64,49.64,0,0,0,22.19-5.32l1.18,13.9A55.3,55.3,0,0,1,335,560.26a46,46,0,0,1-16.87-2.89,35.07,35.07,0,0,1-12.49-8.06,34.57,34.57,0,0,1-7.77-12.13A42.33,42.33,0,0,1,295.17,522a44.1,44.1,0,0,1,2.44-14.87,35.61,35.61,0,0,1,7.1-12.05,33.55,33.55,0,0,1,11.17-8.14,35.38,35.38,0,0,1,14.79-3,34.67,34.67,0,0,1,12.79,2.3,30.36,30.36,0,0,1,10.13,6.43,29.57,29.57,0,0,1,6.74,10,33.46,33.46,0,0,1,2.44,13c0,1.18-.08,2.54-.23,4.07A46.19,46.19,0,0,1,361.73,524.76ZM331,498.14q-14.49,0-17.75,15.23h32.4a16.73,16.73,0,0,0-3.55-10.8Q338.51,498.13,331,498.14Z" transform="translate(-48 -439.77)" style="fill:#fff"/><path d="M398.41,546.5l-1.62,13.76h-5.92q-9.47,0-14.2-5.32a19.51,19.51,0,0,1-4.74-13.47V447.84H388.8v86.09a65,65,0,0,0,.29,7,7.76,7.76,0,0,0,1.26,3.78,4.3,4.3,0,0,0,2.89,1.55A35.29,35.29,0,0,0,398.41,546.5Z" transform="translate(-48 -439.77)" style="fill:#fff"/><path d="M520.15,558.78H505.8l-49.55-74.4v74.4H438.79V455.24H456.4l46.29,70.11V455.24h17.46Z" transform="translate(-48 -439.77)" style="fill:#fff"/><path d="M597.8,546.5l-1.62,13.76h-5q-12.43,0-17.16-9.17-8,9.17-22.48,9.17a24,24,0,0,1-8.73-1.55,19.8,19.8,0,0,1-6.88-4.44,20.41,20.41,0,0,1-4.51-7,23.75,23.75,0,0,1-1.63-8.94,18.21,18.21,0,0,1,4.37-12.5,33,33,0,0,1,10.72-8,52.24,52.24,0,0,1,13.68-4.29,92.88,92.88,0,0,1,13.39-1.4q-.15-7.55-3.4-10.58t-10.8-3q-9,0-19.82,5.91l-1.78-13.6a53.9,53.9,0,0,1,26.18-7q13.32,0,19.9,7.33t6.58,24v18.34c0,2.77.07,5,.22,6.66a10.41,10.41,0,0,0,1,3.92,3.57,3.57,0,0,0,2.14,1.85,12.79,12.79,0,0,0,3.77.44Zm-25.88-5.91v-17q-11.1.43-17.9,3.92t-6.8,10.13q0,9.61,10.35,9.61a18.7,18.7,0,0,0,7.55-1.77A20,20,0,0,0,571.92,540.59Z" transform="translate(-48 -439.77)" style="fill:#fff"/><path d="M642,546.5l-1.48,13.76H627.83a23.11,23.11,0,0,1-8.58-1.48,17.42,17.42,0,0,1-6.14-4,15.86,15.86,0,0,1-3.62-5.92,22.34,22.34,0,0,1-1.18-7.4v-42.6h-11.1l1.48-13.61h9.62V468.55L625,466.77v18.49h17.16v13.61H625v34.91a66.18,66.18,0,0,0,.3,7.18,5.06,5.06,0,0,0,5.17,5.25,62.76,62.76,0,0,0,7,.29Z" transform="translate(-48 -439.77)" style="fill:#fff"/><path d="M667.47,558.78H650.61V485.26h16.86Z" transform="translate(-48 -439.77)" style="fill:#fff"/><path d="M676.94,522.1a43,43,0,0,1,2.59-15A35.29,35.29,0,0,1,686.92,495a34.68,34.68,0,0,1,11.69-8.06,38.39,38.39,0,0,1,15.31-3,37.86,37.86,0,0,1,15.23,3A34.33,34.33,0,0,1,740.76,495a36.9,36.9,0,0,1,7.47,12.13,41.28,41.28,0,0,1,2.67,14.94A42.55,42.55,0,0,1,748.31,537a36.15,36.15,0,0,1-7.4,12.13,33.9,33.9,0,0,1-11.69,8.14,41.25,41.25,0,0,1-30.69,0,34.8,34.8,0,0,1-11.61-8.06,35.27,35.27,0,0,1-7.39-12.06A42.76,42.76,0,0,1,676.94,522.1Zm17.15-.07q0,11.06,5.26,17.54t14.57,6.49q9.32,0,14.57-6.49T733.74,522q0-11.07-5.25-17.48t-14.57-6.41q-9.33,0-14.57,6.41T694.09,522Z" transform="translate(-48 -439.77)" style="fill:#fff"/><path d="M825.59,558.78H808.88V519q0-10.8-3.77-15.82t-12.21-5q-10.35,0-15.82,7.24v53.4H760.36V485.26h15.09l.59,5.48a29.36,29.36,0,0,1,18.64-6.81q30.92,0,30.91,35.06Z" transform="translate(-48 -439.77)" style="fill:#fff"/><path d="M928,538.83a7.61,7.61,0,0,1-6-2.9,214.92,214.92,0,0,0-40-38.82,7.64,7.64,0,1,1,9.12-12.25A230.11,230.11,0,0,1,934,526.44a7.65,7.65,0,0,1-6,12.39Z" transform="translate(-48 -439.77)" style="fill:#67bea4"/><path d="M844.64,474.09a7.64,7.64,0,0,1-3.11-.67A214.28,214.28,0,0,0,684.08,467,7.64,7.64,0,0,1,679,452.62a229.46,229.46,0,0,1,168.73,6.85,7.64,7.64,0,0,1-3.11,14.62Z" transform="translate(-48 -439.77)" style="fill:#67bea4"/><path d="M666.38,471.79a7.56,7.56,0,0,0-.31-5.83v0a7.66,7.66,0,0,0-10.16-3.61h0a7.66,7.66,0,0,0-3.6,10.2h0a7.65,7.65,0,0,0,10.15,3.61l0,0a7.61,7.61,0,0,0,3.91-4.35" transform="translate(-48 -439.77)" style="fill:#fff"/><path d="M948.56,553.91a7.57,7.57,0,0,0-.31-5.83s0,0,0,0a7.66,7.66,0,0,0-10.16-3.62l0,0a7.66,7.66,0,0,0-3.6,10.19h0a7.65,7.65,0,0,0,10.15,3.61l0,0a7.55,7.55,0,0,0,3.91-4.35" transform="translate(-48 -439.77)" style="fill:#fff"/><path d="M873.12,480.71a7.57,7.57,0,0,0-.31-5.83s0,0,0,0a7.66,7.66,0,0,0-10.16-3.61l0,0a7.65,7.65,0,0,0-3.6,10.19s0,0,0,0a7.65,7.65,0,0,0,10.15,3.61l0,0a7.61,7.61,0,0,0,3.91-4.35" transform="translate(-48 -439.77)" style="fill:#fff"/></svg>