<svg xmlns="http://www.w3.org/2000/svg" viewBox="0 0 901 120.49"><title>TN_logo</title><path d="M76.62,31.8H47v87H29.58v-87H0V15.24H76.62Z" transform="translate(0 0.23)" style="fill:#2e3d54"/><path d="M112.27,43.64,109,60.06H102.8a16.78,16.78,0,0,0-8.51,2.36A15,15,0,0,0,88.45,68v50.74H71.29V45.26H86.53l.89,9.18q9.75-10.8,21.15-10.8Z" transform="translate(0 0.23)" style="fill:#2e3d54"/><path d="M179.13,106.5l-1.63,13.76h-5q-12.42,0-17.16-9.17-8,9.16-22.48,9.17a24,24,0,0,1-8.73-1.55,19.9,19.9,0,0,1-6.88-4.44,20.56,20.56,0,0,1-4.51-7,23.75,23.75,0,0,1-1.63-8.94,18.21,18.21,0,0,1,4.37-12.5,33.05,33.05,0,0,1,10.72-8,52.24,52.24,0,0,1,13.68-4.29,93,93,0,0,1,13.39-1.4q-.15-7.55-3.4-10.58t-10.8-3q-9,0-19.82,5.91l-1.78-13.6a53.91,53.91,0,0,1,26.19-7q13.31,0,19.89,7.33t6.58,24V93.63c0,2.77.08,5,.22,6.66a10.41,10.41,0,0,0,1,3.92,3.57,3.57,0,0,0,2.14,1.85,12.79,12.79,0,0,0,3.77.44Zm-25.89-5.91v-17q-11.1.44-17.9,3.92t-6.8,10.13q0,9.62,10.35,9.61a18.7,18.7,0,0,0,7.55-1.77A20,20,0,0,0,153.24,100.59Z" transform="translate(0 0.23)" style="fill:#2e3d54"/><path d="M247,45.26l-28.11,73.52H203.38l-28.1-73.52h17l18.79,53.25,18.78-53.25Z" transform="translate(0 0.23)" style="fill:#2e3d54"/><path d="M313.73,84.76H264.47q1.48,11,8.07,16.16a24.56,24.56,0,0,0,15.6,5.14,49.64,49.64,0,0,0,22.19-5.32l1.18,13.9A55.3,55.3,0,0,1,287,120.26a46,46,0,0,1-16.87-2.89,35.07,35.07,0,0,1-12.49-8.06,34.57,34.57,0,0,1-7.77-12.13A42.33,42.33,0,0,1,247.17,82a44.1,44.1,0,0,1,2.44-14.87,35.61,35.61,0,0,1,7.1-12,33.55,33.55,0,0,1,11.17-8.14,35.38,35.38,0,0,1,14.79-3,34.67,34.67,0,0,1,12.79,2.3,30.36,30.36,0,0,1,10.13,6.43,29.57,29.57,0,0,1,6.74,10,33.46,33.46,0,0,1,2.44,13c0,1.18-.08,2.54-.23,4.07A46.19,46.19,0,0,1,313.73,84.76ZM283,58.14q-14.49,0-17.75,15.23h32.4a16.73,16.73,0,0,0-3.55-10.8Q290.51,58.13,283,58.14Z" transform="translate(0 0.23)" style="fill:#2e3d54"/><path d="M350.41,106.5l-1.62,13.76h-5.92q-9.47,0-14.2-5.32a19.51,19.51,0,0,1-4.74-13.47V7.84H340.8V93.93a65,65,0,0,0,.29,6.95,7.76,7.76,0,0,0,1.26,3.78,4.3,4.3,0,0,0,2.89,1.55A35.29,35.29,0,0,0,350.41,106.5Z" transform="translate(0 0.23)" style="fill:#2e3d54"/><path d="M472.15,118.78H457.8l-49.55-74.4v74.4H390.79V15.24H408.4l46.29,70.11V15.24h17.46Z" transform="translate(0 0.23)" style="fill:#2e3d54"/><path d="M549.8,106.5l-1.62,13.76h-5q-12.43,0-17.16-9.17-8,9.16-22.48,9.17a24,24,0,0,1-8.73-1.55,19.8,19.8,0,0,1-6.88-4.44,20.41,20.41,0,0,1-4.51-7,23.75,23.75,0,0,1-1.63-8.94,18.21,18.21,0,0,1,4.37-12.5,33,33,0,0,1,10.72-8,52.24,52.24,0,0,1,13.68-4.29,92.88,92.88,0,0,1,13.39-1.4q-.15-7.55-3.4-10.58t-10.8-3q-9,0-19.82,5.91l-1.78-13.6a53.9,53.9,0,0,1,26.18-7q13.32,0,19.9,7.33t6.58,24V93.63c0,2.77.07,5,.22,6.66a10.41,10.41,0,0,0,1,3.92,3.57,3.57,0,0,0,2.14,1.85,12.79,12.79,0,0,0,3.77.44Zm-25.88-5.91v-17Q512.82,84,506,87.5t-6.8,10.13q0,9.62,10.35,9.61a18.7,18.7,0,0,0,7.55-1.77A20,20,0,0,0,523.92,100.59Z" transform="translate(0 0.23)" style="fill:#2e3d54"/><path d="M594,106.5l-1.48,13.76H579.83a23.11,23.11,0,0,1-8.58-1.48,17.42,17.42,0,0,1-6.14-4,15.86,15.86,0,0,1-3.62-5.92,22.34,22.34,0,0,1-1.18-7.4V58.87h-11.1l1.48-13.61h9.62V28.55L577,26.77V45.26h17.16V58.87H577V93.78a66.18,66.18,0,0,0,.3,7.18,5.06,5.06,0,0,0,5.17,5.25,62.76,62.76,0,0,0,7,.29Z" transform="translate(0 0.23)" style="fill:#2e3d54"/><path d="M619.47,118.78H602.61V45.26h16.86Z" transform="translate(0 0.23)" style="fill:#2e3d54"/><path d="M628.94,82.1a43,43,0,0,1,2.59-15A35.29,35.29,0,0,1,638.92,55a34.68,34.68,0,0,1,11.69-8.06,38.39,38.39,0,0,1,15.31-3,37.86,37.86,0,0,1,15.23,3A34.33,34.33,0,0,1,692.76,55a36.9,36.9,0,0,1,7.47,12.13A41.28,41.28,0,0,1,702.9,82.1,42.55,42.55,0,0,1,700.31,97a36.15,36.15,0,0,1-7.4,12.13,33.9,33.9,0,0,1-11.69,8.14,41.25,41.25,0,0,1-30.69,0,34.8,34.8,0,0,1-11.61-8.06,35.27,35.27,0,0,1-7.39-12.06A42.76,42.76,0,0,1,628.94,82.1ZM646.09,82q0,11.06,5.26,17.54t14.57,6.49q9.32,0,14.57-6.49T685.74,82q0-11.07-5.25-17.48t-14.57-6.41q-9.33,0-14.57,6.41T646.09,82Z" transform="translate(0 0.23)" style="fill:#2e3d54"/><path d="M777.59,118.78H760.88V79q0-10.8-3.77-15.82t-12.21-5q-10.35,0-15.82,7.24v53.4H712.36V45.26h15.09l.59,5.48a29.36,29.36,0,0,1,18.64-6.81q30.92,0,30.91,35.06Z" transform="translate(0 0.23)" style="fill:#2e3d54"/><path d="M880,98.83a7.61,7.61,0,0,1-6-2.9,214.92,214.92,0,0,0-40-38.82,7.64,7.64,0,1,1,9.12-12.25A230.11,230.11,0,0,1,886,86.44a7.65,7.65,0,0,1-6,12.39Z" transform="translate(0 0.23)" style="fill:#67bea4"/><path d="M796.64,34.09a7.64,7.64,0,0,1-3.11-.67A214.28,214.28,0,0,0,636.08,27,7.64,7.64,0,0,1,631,12.62a229.46,229.46,0,0,1,168.73,6.85,7.64,7.64,0,0,1-3.11,14.62Z" transform="translate(0 0.23)" style="fill:#67bea4"/><path d="M618.38,31.79a7.56,7.56,0,0,0-.31-5.83v0a7.66,7.66,0,0,0-10.16-3.61h0a7.66,7.66,0,0,0-3.6,10.2h0a7.65,7.65,0,0,0,10.15,3.61l0,0a7.61,7.61,0,0,0,3.91-4.35" transform="translate(0 0.23)" style="fill:#2e3d54"/><path d="M900.56,113.91a7.57,7.57,0,0,0-.31-5.83s0,0,0,0a7.66,7.66,0,0,0-10.16-3.62l0,0a7.66,7.66,0,0,0-3.6,10.19s0,0,0,0a7.65,7.65,0,0,0,10.15,3.61l0,0a7.55,7.55,0,0,0,3.91-4.35" transform="translate(0 0.23)" style="fill:#2e3d54"/><path d="M825.12,40.71a7.57,7.57,0,0,0-.31-5.83s0,0,0,0a7.66,7.66,0,0,0-10.16-3.61l0,0A7.65,7.65,0,0,0,811,41.46h0a7.65,7.65,0,0,0,10.15,3.61l0,0a7.61,7.61,0,0,0,3.91-4.35" transform="translate(0 0.23)" style="fill:#2e3d54"/></svg>